<svg width="512" height="512" viewBox="0 0 512 512" fill="none" xmlns="http://www.w3.org/2000/svg">
<defs>
<linearGradient id="paint0_linear" x1="256" y1="0" x2="256" y2="512" gradientUnits="userSpaceOnUse">
<stop stop-color="#4f46e5"/>
<stop offset="1" stop-color="#9333ea"/>
</linearGradient>
<filter id="filter0_d" x="120" y="120" width="272" height="272" filterUnits="userSpaceOnUse" color-interpolation-filters="sRGB">
<feFlood flood-opacity="0" result="BackgroundImageFix"/>
<feColorMatrix in="SourceAlpha" type="matrix" values="0 0 0 0 0 0 0 0 0 0 0 0 0 0 0 0 0 0 127 0"/>
<feOffset dy="4"/>
<feGaussianBlur stdDeviation="8"/>
<feColorMatrix type="matrix" values="0 0 0 0 0 0 0 0 0 0 0 0 0 0 0 0 0 0 0.25 0"/>
<feBlend mode="normal" in2="BackgroundImageFix" result="effect1_dropShadow"/>
<feBlend mode="normal" in="SourceGraphic" in2="effect1_dropShadow" result="shape"/>
</filter>
</defs>
<path d="M256 0C114.615 0 0 114.615 0 256C0 397.385 114.615 512 256 512C397.385 512 512 397.385 512 256C512 114.615 397.385 0 256 0Z" fill="url(#paint0_linear)"/>
<path d="M256 96C186.1 96 128 154.1 128 224V256C128 344.4 256 416 256 416C256 416 384 344.4 384 256V224C384 154.1 325.9 96 256 96Z" fill="white" fill-opacity="0.2"/>
<path d="M256 128C202.9 128 160 170.9 160 224V256C160 320 256 384 256 384C256 384 352 320 352 256V224C352 170.9 309.1 128 256 128Z" stroke="white" stroke-width="24" stroke-linecap="round" stroke-linejoin="round"/>
<g filter="url(#filter0_d)">
<path d="M256 192L270.8 226.2L304 240L270.8 253.8L256 288L241.2 253.8L208 240L241.2 226.2L256 192Z" fill="white"/>
</g>
</svg>
